<svg width="147" height="32" viewBox="0 0 147 32" fill="none" xmlns="http://www.w3.org/2000/svg">
<path d="M11.837 17.5694C10.8666 18.0105 9.81359 18.2254 8.75327 18.1987C7.76766 18.1942 6.7896 18.0212 5.85889 17.6869C4.87484 17.3465 3.96784 16.8042 3.19253 16.0928C2.36804 15.3223 1.70855 14.3829 1.25621 13.3348C0.730115 12.094 0.472827 10.7498 0.50227 9.39594C0.478192 8.01254 0.72849 6.63865 1.23782 5.35851C1.68667 4.24752 2.35919 3.2474 3.21092 2.42426C4.04788 1.63005 5.03344 1.0205 6.10714 0.633007C7.2468 0.211681 8.44909 -0.00128206 9.65983 0.00370295C10.8639 -0.00550074 12.0597 0.208292 13.1905 0.634904C14.2613 1.03606 15.2444 1.65195 16.083 2.44701C16.957 3.27754 17.6503 4.28961 18.1172 5.41649C18.5841 6.54338 18.814 7.75948 18.7916 8.98461C18.7985 9.77595 18.737 10.5663 18.6078 11.3464C18.4886 12.045 18.3077 12.7309 18.0671 13.3955C17.8227 14.0484 17.5409 14.6858 17.2231 15.3042C16.8945 15.9361 16.5268 16.5793 16.1198 17.2339L9.38768 28.3605H5.13989L11.837 17.5694ZM15.1838 9.10214C15.1978 8.30988 15.0687 7.52185 14.8031 6.77824C14.5514 6.09206 14.1623 5.46818 13.6612 4.94718C13.1618 4.43558 12.5669 4.03383 11.9124 3.76628C10.4605 3.18812 8.85177 3.18812 7.39986 3.76628C6.74596 4.03387 6.15163 4.43563 5.65294 4.94718C5.15225 5.4685 4.76323 6.09229 4.511 6.77824C3.98339 8.27978 3.98339 9.9245 4.511 11.426C4.76323 12.112 5.15225 12.7358 5.65294 13.2571C6.15163 13.7686 6.74596 14.1704 7.39986 14.438C8.85177 15.0161 10.4605 15.0161 11.9124 14.438C12.5669 14.1704 13.1618 13.7687 13.6612 13.2571C14.1619 12.7358 14.5509 12.112 14.8031 11.426C15.0687 10.6824 15.1978 9.8944 15.1838 9.10214Z" fill="#2F2F2F"/>
<path d="M31.3433 17.566C30.3757 18.0059 29.3259 18.2208 28.2687 18.1953C27.2832 18.1897 26.3053 18.0168 25.3743 17.6835C24.391 17.3426 23.4847 16.8004 22.7098 16.0894C21.8853 15.3184 21.2253 14.3792 20.7716 13.3314C20.2376 12.093 19.9721 10.7495 19.9938 9.39443C19.9697 8.01103 20.22 6.63714 20.7293 5.357C21.1775 4.2461 21.8494 3.24595 22.7006 2.42275C23.5382 1.62849 24.5244 1.01895 25.5986 0.631493C26.7384 0.21031 27.9405 -0.00327291 29.1513 0.000291463C30.3572 -0.00901829 31.5549 0.204768 32.6875 0.631493C33.759 1.03233 34.7428 1.64825 35.5818 2.4436C36.4555 3.2743 37.1485 4.28645 37.6151 5.41332C38.0817 6.5402 38.3112 7.75621 38.2887 8.98121C38.2964 9.77257 38.2348 10.563 38.1048 11.343C37.9856 12.0416 37.8047 12.7275 37.5641 13.3921C37.3191 14.045 37.0367 14.6824 36.7183 15.3008C36.3909 15.9327 36.0269 16.5759 35.626 17.2305L28.8994 28.3495H24.6498L31.3433 17.566ZM34.69 9.09873C34.7049 8.3064 34.5758 7.51819 34.3094 6.77483C34.0583 6.08829 33.6691 5.46427 33.1674 4.94377C32.6687 4.43222 32.0744 4.03046 31.4205 3.76288C29.9686 3.18472 28.3598 3.18472 26.9079 3.76288C26.2538 4.02999 25.6594 4.43181 25.161 4.94377C24.6588 5.4642 24.269 6.0882 24.0172 6.77483C23.4896 8.27637 23.4896 9.92109 24.0172 11.4226C24.2694 12.109 24.6592 12.7329 25.161 13.2537C25.6594 13.7656 26.2538 14.1675 26.9079 14.4346C28.3598 15.0127 29.9686 15.0127 31.4205 14.4346C32.0744 14.167 32.6687 13.7652 33.1674 13.2537C33.6687 12.7329 34.0578 12.1089 34.3094 11.4226C34.5758 10.6793 34.7049 9.89106 34.69 9.09873Z" fill="#2F2F2F"/>
<path d="M43.9779 13.7845L40.4178 8.27051H44.0735L45.62 11.3261L47.5232 8.27051H51.1899L47.4166 13.7845L51.6882 20.0852H48.0712L45.7873 16.2297L43.121 20.0852H39.5039L43.9779 13.7845Z" fill="#2F2F2F"/>
<path d="M77.1836 14.9254V11.5874H80.4329V6.38232H84.1713V11.5874H87.7571V14.9254H84.1713V22.3709C84.1713 23.2227 84.319 23.8962 84.6145 24.3915C84.9105 24.8882 85.6994 25.1365 86.5747 25.1365C86.9608 25.1326 87.3456 25.0908 87.724 25.0114C88.078 24.9556 88.4147 24.8161 88.7078 24.6038V28.1864C88.2255 28.4177 87.7101 28.5668 87.1815 28.628C86.6546 28.7057 86.1232 28.7475 85.5909 28.7531C84.7181 28.778 83.8476 28.6499 83.0165 28.374C82.3958 28.1595 81.8485 27.7645 81.4406 27.2367C81.0356 26.6783 80.7652 26.0286 80.6517 25.3412C80.5006 24.4756 80.4291 23.5972 80.4384 22.7178V14.9254H77.1836Z" fill="#F52F57"/>
<path d="M73.227 16.2313C72.8817 15.6938 72.4097 15.2554 71.8553 14.9571C71.3009 14.6587 70.6821 14.5102 70.0568 14.5254C69.5031 14.5287 68.9587 14.6726 68.4717 14.9443C68.227 15.0669 68.023 15.2613 67.8852 15.5031C67.7475 15.745 67.6822 16.0234 67.6976 16.3034C67.686 16.5337 67.7405 16.7624 67.8543 16.961C67.9681 17.1596 68.1362 17.3192 68.3375 17.4198C68.8514 17.685 69.3948 17.8842 69.9557 18.0131C70.6079 18.1761 71.3109 18.3448 72.0649 18.5192C72.7993 18.6869 73.5082 18.9566 74.1722 19.321C74.8184 19.6753 75.3732 20.1835 75.7904 20.8033C76.217 21.4351 76.431 22.2957 76.4322 23.385C76.4612 24.2717 76.245 25.1487 75.8088 25.9136C75.4027 26.5895 74.8476 27.157 74.1888 27.5703C73.4966 28.001 72.7387 28.308 71.9472 28.4782C71.1268 28.6627 70.2897 28.7561 69.45 28.7569C68.2702 28.7698 67.0965 28.5815 65.9764 28.1996C64.8745 27.7965 63.897 27.0976 63.1445 26.1752L65.8422 23.5594C66.3257 24.1347 66.8882 24.6341 67.5118 25.0417C68.1698 25.4405 68.9244 25.6377 69.6872 25.6103C69.9934 25.6091 70.2985 25.5741 70.5975 25.5061C70.906 25.4386 71.2021 25.3209 71.4746 25.1573C71.7332 25.0045 71.9571 24.7964 72.1311 24.5469C72.3498 24.2077 72.4318 23.794 72.3597 23.3934C72.2876 22.9929 72.0671 22.6371 71.7449 22.4012C71.2419 22.0902 70.6955 21.8607 70.1249 21.7207C69.4715 21.5464 68.769 21.3833 68.0175 21.2317C67.2857 21.0893 66.5765 20.8431 65.9102 20.5C65.2666 20.1716 64.7105 19.6862 64.2901 19.086C63.8635 18.4832 63.6502 17.646 63.6502 16.5744C63.6297 15.731 63.8197 14.8962 64.2019 14.1501C64.562 13.4791 65.0649 12.901 65.673 12.4593C66.3062 12.0049 67.0148 11.6741 67.7638 11.4831C69.6133 10.9878 71.5647 11.079 73.3631 11.7447C74.3955 12.1103 75.2916 12.7987 75.9265 13.7141L73.227 16.2313Z" fill="#F52F57"/>
<path d="M104.712 28.3481H100.866V25.6489H100.798C100.397 26.5134 99.7958 27.2631 99.0478 27.8325C98.2633 28.4492 97.1961 28.7588 95.8464 28.7613C94.8999 28.7926 93.9584 28.6094 93.0881 28.2249C92.371 27.8955 91.7406 27.3945 91.2492 26.7634C90.7748 26.1397 90.4311 25.4214 90.2397 24.6537C90.033 23.8452 89.9298 23.0124 89.9326 22.1763L89.916 11.607H93.9615L93.9762 20.0818C93.9762 20.5481 93.9995 21.0655 94.0461 21.6342C94.0869 22.1841 94.2071 22.7246 94.4029 23.2378C94.5856 23.7274 94.8885 24.1597 95.2818 24.4926C95.6753 24.83 96.2307 24.9968 96.9515 24.9968C97.5377 25.0141 98.1201 24.8935 98.6543 24.6443C99.1005 24.422 99.4917 24.0979 99.7981 23.6965C100.105 23.2938 100.328 22.8307 100.455 22.3355C100.59 21.8119 100.657 21.272 100.655 20.73L100.64 11.5918H104.686L104.712 28.3481Z" fill="#F52F57"/>
<path d="M118.925 25.8988H118.861C118.354 26.8624 117.566 27.6371 116.608 28.1127C115.653 28.5759 114.608 28.8117 113.552 28.8027C112.449 28.8242 111.355 28.5945 110.349 28.1298C109.435 27.6919 108.621 27.0617 107.958 26.2798C107.279 25.4709 106.765 24.5298 106.445 23.5123C106.095 22.4073 105.921 21.2513 105.93 20.089C105.922 18.9237 106.108 17.7657 106.482 16.6657C106.819 15.6536 107.337 14.7156 108.01 13.9002C108.656 13.1189 109.456 12.4877 110.356 12.0483C111.303 11.5924 112.336 11.3618 113.381 11.3735C114.032 11.3636 114.682 11.4452 115.312 11.6161C115.825 11.7602 116.319 11.969 116.783 12.2378C117.18 12.4646 117.55 12.7374 117.886 13.051C118.158 13.3082 118.404 13.5919 118.622 13.8983H118.717V2.53662H122.579V28.3496H118.925V25.8988ZM109.786 20.089C109.785 20.7247 109.888 21.3559 110.091 21.9561C110.287 22.5427 110.594 23.0833 110.994 23.5464C111.394 24.0111 111.88 24.3876 112.425 24.6534C113.023 24.9272 113.669 25.0686 114.323 25.0686C114.978 25.0686 115.624 24.9272 116.222 24.6534C116.767 24.3872 117.254 24.0107 117.655 23.5464C118.054 23.0827 118.36 22.5422 118.556 21.9561C118.963 20.7467 118.963 19.4313 118.556 18.2219C118.359 17.636 118.053 17.0956 117.655 16.6316C117.253 16.1679 116.766 15.7915 116.222 15.5246C115.624 15.2509 114.978 15.1094 114.323 15.1094C113.669 15.1094 113.023 15.2509 112.425 15.5246C111.881 15.791 111.394 16.1675 110.994 16.6316C110.594 17.0951 110.287 17.6356 110.091 18.2219C109.885 18.8216 109.779 19.4528 109.777 20.089H109.786Z" fill="#F52F57"/>
<path d="M129.741 19.9491C129.724 18.7043 129.948 17.4684 130.399 16.3136C130.809 15.27 131.416 14.3204 132.183 13.5196C132.943 12.7396 133.852 12.1298 134.851 11.7283C136.96 10.8842 139.3 10.8842 141.409 11.7283C142.408 12.1293 143.317 12.7392 144.077 13.5196C144.845 14.3204 145.451 15.27 145.861 16.3136C146.741 18.653 146.741 21.2472 145.861 23.5866C145.451 24.6295 144.844 25.5784 144.077 26.3787C143.317 27.1591 142.408 27.7695 141.409 28.1719C139.299 29.0134 136.961 29.0134 134.851 28.1719C133.852 27.769 132.944 27.1586 132.183 26.3787C131.416 25.5784 130.81 24.6295 130.399 23.5866C129.948 22.4311 129.724 21.1946 129.741 19.9491ZM133.52 20.1027C133.518 20.7593 133.623 21.4116 133.831 22.0323C134.03 22.6372 134.343 23.1962 134.75 23.6776C135.157 24.1533 135.652 24.5401 136.207 24.8149C136.813 25.0978 137.472 25.2441 138.137 25.2441C138.803 25.2441 139.461 25.0978 140.068 24.8149C140.622 24.5396 141.117 24.1529 141.525 23.6776C141.931 23.1956 142.244 22.6369 142.444 22.0323C142.858 20.7813 142.858 19.424 142.444 18.1731C142.244 17.5685 141.931 17.0097 141.525 16.5278C141.117 16.0524 140.622 15.6658 140.068 15.3905C139.461 15.1076 138.803 14.9613 138.137 14.9613C137.472 14.9613 136.813 15.1076 136.207 15.3905C135.652 15.6653 135.157 16.052 134.75 16.5278C134.343 17.0092 134.03 17.5681 133.831 18.1731C133.623 18.7938 133.518 19.4461 133.52 20.1027Z" fill="#F52F57"/>
<path d="M123.789 5.43365C123.783 4.79326 124.02 4.17582 124.451 3.71443C124.664 3.47511 124.923 3.28573 125.213 3.15915C125.503 3.03257 125.816 2.97177 126.13 2.98087C126.446 2.97293 126.76 3.03079 127.053 3.15098C127.347 3.27117 127.614 3.4512 127.838 3.68031C128.283 4.14945 128.531 4.77903 128.531 5.4346C128.531 6.09017 128.283 6.71976 127.838 7.18889C127.614 7.41775 127.347 7.5975 127.053 7.71736C126.76 7.83722 126.446 7.89473 126.13 7.88644C125.816 7.89578 125.503 7.83528 125.213 7.70903C124.924 7.58278 124.664 7.39375 124.451 7.15478C124.02 6.6928 123.782 6.07466 123.789 5.43365ZM124.196 11.5561H128.175V28.3484H124.196V11.5561Z" fill="#F52F57"/>
<path d="M52.8926 4.20996H56.2982V5.14066H55.1452V8.27014H54.0419V5.14066H52.8926V4.20996ZM56.8756 4.20996H58.3945L59.084 6.77079H59.1135L59.8159 4.20996H61.3367V8.27014H60.3234V5.63539H60.294L59.5217 8.27014H58.6629L57.9035 5.63539H57.8759V8.27014H56.8774L56.8756 4.20996Z" fill="#2F2F2F"/>
</svg>
