<svg width="32" height="32" viewBox="0 0 32 32" fill="none" xmlns="http://www.w3.org/2000/svg">
<path d="M21.3686 3.66117C16.487 -1.22039 8.54194 -1.22039 3.66038 3.66117C-1.22013 8.54379 -1.22013 16.4878 3.66038 21.3705C8.00754 25.7166 14.778 26.1822 19.6564 22.7885C19.7591 23.2742 19.994 23.7377 20.3718 24.1155L27.4809 31.2246C28.5169 32.2585 30.191 32.2585 31.2217 31.2246C32.2566 30.1897 32.2566 28.5156 31.2217 27.4838L24.1126 20.3726C23.7369 19.998 23.2723 19.762 22.7866 19.6593C26.1824 14.7799 25.7168 8.01045 21.3686 3.66117ZM19.1241 19.126C15.4796 22.7705 9.54831 22.7705 5.90486 19.126C2.26247 15.4815 2.26247 9.55122 5.90486 5.90671C9.54831 2.26326 15.4796 2.26326 19.1241 5.90671C22.7686 9.55122 22.7686 15.4815 19.1241 19.126Z" fill="#525252"/>
</svg>
