<svg width="607" height="257" viewBox="0 0 607 257" fill="none" xmlns="http://www.w3.org/2000/svg">
<path d="M0.914 59H14.174V34.43H36.092V59H49.352V0.967999H36.092V23.354H14.174V0.967999H0.914V59ZM78.7755 60.248C89.4615 60.248 96.2475 54.632 98.3535 47.3H86.4975C85.1715 49.874 82.7535 51.356 78.9315 51.356C73.0035 51.356 69.6495 47.612 68.8695 41.372H99.1335C99.2115 33.182 97.1055 26.162 92.4255 21.638C88.7595 18.284 84.0795 16.334 78.1515 16.334C65.5155 16.334 56.8575 25.85 56.8575 38.33C56.8575 50.732 65.2035 60.248 78.7755 60.248ZM78.1515 24.992C82.9875 24.992 86.2635 28.502 86.6535 34.274H68.9475C69.7275 28.58 72.5355 24.992 78.1515 24.992ZM105.908 59H118.232V0.967999H105.908V59ZM126.875 72.806H139.121V62.9C139.121 58.454 138.887 55.412 138.731 53.852H138.887C141.305 57.908 145.673 60.326 151.133 60.326C162.209 60.326 169.385 51.746 169.385 38.252C169.385 25.538 162.521 16.334 151.523 16.334C145.829 16.334 141.695 18.674 138.887 23.432H138.653V17.504H126.875V72.806ZM148.247 50.81C142.007 50.81 138.731 45.74 138.731 38.642C138.731 31.622 141.773 26.084 148.091 26.084C154.097 26.084 156.983 31.232 156.983 38.642C156.983 46.052 153.785 50.81 148.247 50.81ZM215.213 60.326C226.757 60.326 234.245 52.994 234.635 43.556H222.857C222.311 48.314 219.581 51.044 215.057 51.044C208.895 51.044 205.775 45.896 205.775 38.33C205.775 30.53 208.895 25.46 215.057 25.46C219.113 25.46 221.609 27.878 222.467 31.7H234.323C232.841 22.652 225.977 16.334 214.901 16.334C201.875 16.334 193.373 25.85 193.373 38.33C193.373 50.732 201.953 60.326 215.213 60.326ZM260.867 60.326C274.049 60.326 282.707 50.732 282.707 38.33C282.707 25.85 274.049 16.334 260.867 16.334C247.607 16.334 238.871 25.85 238.871 38.33C238.871 50.732 247.607 60.326 260.867 60.326ZM260.789 51.434C254.549 51.434 251.273 46.13 251.273 38.33C251.273 30.452 254.549 25.07 260.789 25.07C266.873 25.07 270.305 30.452 270.305 38.33C270.305 46.13 266.873 51.434 260.789 51.434ZM289.365 59H301.611V35.366C301.611 30.062 304.497 26.396 308.787 26.396C312.843 26.396 314.871 29.126 314.871 33.65V59H327.117V35.366C327.117 30.062 329.847 26.396 334.215 26.396C338.193 26.396 340.377 29.126 340.377 33.65V59H352.545V31.622C352.545 22.418 347.787 16.334 338.583 16.334C333.357 16.334 328.833 18.674 325.401 24.212H325.245C323.139 19.064 319.317 16.334 313.857 16.334C308.007 16.334 304.029 19.064 301.377 23.978H301.143V17.504H289.365V59ZM360.837 72.806H373.083V62.9C373.083 58.454 372.849 55.412 372.693 53.852H372.849C375.267 57.908 379.635 60.326 385.095 60.326C396.171 60.326 403.347 51.746 403.347 38.252C403.347 25.538 396.483 16.334 385.485 16.334C379.791 16.334 375.657 18.674 372.849 23.432H372.615V17.504H360.837V72.806ZM382.209 50.81C375.969 50.81 372.693 45.74 372.693 38.642C372.693 31.622 375.735 26.084 382.053 26.084C388.059 26.084 390.945 31.232 390.945 38.642C390.945 46.052 387.747 50.81 382.209 50.81ZM436.589 59H448.523V58.298C447.431 57.596 446.963 55.802 446.963 52.526V31.232C446.963 25.616 444.935 21.326 440.645 18.83C437.759 17.114 434.015 16.334 428.711 16.334C416.387 16.334 410.615 22.964 410.303 30.062H421.613C421.925 26.786 424.187 24.602 428.867 24.602C433.079 24.602 435.029 26.63 435.029 29.594C435.029 32.714 431.987 33.884 424.577 34.898C415.529 35.99 408.275 38.33 408.275 47.534C408.275 55.724 414.281 60.092 422.471 60.092C428.867 60.092 432.299 57.752 435.029 53.93H435.185C435.419 56.27 435.965 58.064 436.589 59ZM426.293 52.058C422.939 52.058 420.209 50.732 420.209 47.144C420.209 43.556 422.783 42.23 428.165 41.06C430.895 40.436 433.547 39.812 435.341 38.72V44.102C435.341 48.626 431.753 52.058 426.293 52.058ZM467.573 17.504H455.717V59H467.963V35.6C467.963 30.296 471.161 26.474 475.919 26.474C480.443 26.474 482.861 29.516 482.861 34.04V59H495.029V31.7C495.029 22.418 489.725 16.334 480.599 16.334C474.827 16.334 470.381 18.83 467.807 23.822H467.573V17.504ZM503.194 11.654H515.596V0.967999H503.194V11.654ZM503.272 59H515.518V17.504H503.272V59ZM544.057 60.248C554.743 60.248 561.529 54.632 563.635 47.3H551.779C550.453 49.874 548.035 51.356 544.213 51.356C538.285 51.356 534.931 47.612 534.151 41.372H564.415C564.493 33.182 562.387 26.162 557.707 21.638C554.041 18.284 549.361 16.334 543.433 16.334C530.797 16.334 522.139 25.85 522.139 38.33C522.139 50.732 530.485 60.248 544.057 60.248ZM543.433 24.992C548.269 24.992 551.545 28.502 551.935 34.274H534.229C535.009 28.58 537.817 24.992 543.433 24.992ZM588.272 60.326C599.036 60.326 606.992 55.646 606.992 46.676C606.992 36.224 598.568 34.274 591.158 32.948C585.464 31.934 580.94 31.466 580.94 28.346C580.94 25.694 583.358 24.134 587.102 24.134C591.002 24.134 593.342 25.616 594.122 28.58H605.51C604.418 21.326 598.646 16.334 587.102 16.334C577.352 16.334 569.63 20.78 569.63 29.282C569.63 38.954 577.118 40.826 584.528 42.23C590.3 43.322 595.214 43.79 595.214 47.534C595.214 50.498 592.718 52.292 588.35 52.292C583.592 52.292 580.628 50.108 579.926 46.208H568.382C569.006 54.554 576.26 60.326 588.272 60.326ZM75.7601 124.304H82.0001V147.548C82.0001 155.972 87.2261 158.468 94.9481 158.468C98.2241 158.468 100.72 158.078 102.046 157.844V148.718H101.422C100.642 148.796 99.3941 148.874 98.6141 148.874C95.7281 148.874 94.0121 148.016 94.0121 144.896V124.304H102.124V116.504H94.0121V103.244H82.0001V116.504H75.7601V124.304ZM121.221 115.958V99.968H108.975V158H121.221V134.6C121.221 129.296 124.419 125.474 129.177 125.474C133.701 125.474 136.119 128.516 136.119 133.04V158H148.287V130.7C148.287 121.418 142.983 115.334 133.857 115.334C128.085 115.334 123.873 117.986 121.377 122.432H121.143C121.221 119.702 121.221 116.348 121.221 115.958ZM176.497 159.248C187.183 159.248 193.969 153.632 196.075 146.3H184.219C182.893 148.874 180.475 150.356 176.653 150.356C170.725 150.356 167.371 146.612 166.591 140.372H196.855C196.933 132.182 194.827 125.162 190.147 120.638C186.481 117.284 181.801 115.334 175.873 115.334C163.237 115.334 154.579 124.85 154.579 137.33C154.579 149.732 162.925 159.248 176.497 159.248ZM175.873 123.992C180.709 123.992 183.985 127.502 184.375 133.274H166.669C167.449 127.58 170.257 123.992 175.873 123.992ZM203.396 110.654H215.798V99.968H203.396V110.654ZM203.474 158H215.72V116.504H203.474V158ZM236.069 116.504H224.291V158H236.537V138.734C236.537 130.622 240.905 126.488 247.535 126.566C248.393 126.566 249.251 126.644 250.109 126.8H250.421V116.114C249.875 115.88 249.017 115.802 247.847 115.802C242.699 115.802 238.955 118.142 236.303 123.914H236.069V116.504Z" fill="black"/>
<path d="M1.07 158H24.47C42.254 158 52.004 146.612 52.004 129.374C52.004 111.59 41.552 99.968 25.25 99.968H1.07V158ZM14.408 146.768V111.2H23.69C33.44 111.2 38.432 118.376 38.432 129.374C38.432 140.45 33.518 146.768 23.456 146.768H14.408ZM0.914 257H14.408V236.876H28.292C40.304 236.876 47.792 229.232 47.792 218.234C47.792 212.54 45.764 207.86 42.254 204.35C38.744 200.84 33.596 198.968 26.732 198.968H0.914V257ZM14.408 210.278H25.796C31.256 210.278 34.376 213.164 34.376 218.234C34.376 223.148 31.334 226.346 25.718 226.346H14.408V210.278Z" fill="#FF6D3E"/>
<path d="M-4 167.75H54.824V171.65H-4V167.75ZM-4 266.75H49.508V270.65H-4V266.75Z" fill="#FF6D3E"/>
</svg>
